<svg xmlns="http://www.w3.org/2000/svg" width="378.017" height="378.016" viewBox="0 0 378.017 378.016" xml:space="preserve"><path d="M348.386.175H29.625C13.292.175 0 13.461 0 29.795v318.428c0 16.332 13.292 29.618 29.625 29.618H348.39c16.336 0 29.626-13.291 29.626-29.618V29.795c-.005-16.334-13.297-29.62-29.63-29.62m-20.077 33.716c7.01 0 12.695 5.682 12.695 12.698 0 7.015-5.686 12.698-12.695 12.698-7.014 0-12.7-5.683-12.7-12.698-.001-7.016 5.686-12.698 12.7-12.698m-45.493 0c7.014 0 12.704 5.682 12.704 12.698 0 7.015-5.69 12.698-12.704 12.698-7.004 0-12.691-5.683-12.691-12.698s5.687-12.698 12.691-12.698m61.339 310.097h-310.3V90.8h310.306v253.188zM180.663 185.495 78.474 232.331v-22.562l78.997-33.85v-.426l-78.997-33.855V119.08l102.189 46.832zm118.885 39.119H193.09v-10.637h106.458z"/></svg>