<svg xmlns="http://www.w3.org/2000/svg" width="35.695" height="35.695" viewBox="0 0 35.695 35.695" xml:space="preserve"><path d="M11.558 10.767a6.29 6.29 0 1 1 12.578 0 6.287 6.287 0 0 1-6.289 6.29 6.29 6.29 0 0 1-6.289-6.29m24.109 11.84-.879-5.27c-.158-.954-.961-1.754-1.896-1.984a4.7 4.7 0 0 1-3.136 1.191c-1.203 0-2.3-.452-3.135-1.191-.938.229-1.739 1.03-1.897 1.984l-.021.124a4.15 4.15 0 0 0-1.868-1.052 7.5 7.5 0 0 1-9.974 0 4.15 4.15 0 0 0-1.868 1.052l-.021-.124c-.158-.954-.962-1.754-1.897-1.984a4.72 4.72 0 0 1-6.271 0c-.936.229-1.738 1.03-1.896 1.984l-.879 5.27c-.189 1.131.596 2.057 1.741 2.057h7.222l-.548 3.283c-.3 1.799.948 3.271 2.771 3.271H24.48c1.823 0 3.071-1.475 2.771-3.271l-.548-3.283h7.222c1.146-.002 1.93-.926 1.742-2.057m-5.912-6.845a3.954 3.954 0 1 0 0-7.907 3.954 3.954 0 0 0 0 7.907m-23.817 0a3.953 3.953 0 1 0 0-7.907 3.953 3.953 0 0 0 0 7.907"/></svg>