<svg xmlns="http://www.w3.org/2000/svg" xmlns:xlink="http://www.w3.org/1999/xlink" width="1920" zoomAndPan="magnify" viewBox="0 0 1440 809.999993" height="1080" preserveAspectRatio="xMidYMid meet" version="1.0"><defs><g/></defs><g fill="#ffffff" fill-opacity="1"><g transform="translate(24.102107, 464.398345)"><g><path d="M 187.796875 -124.734375 C 187.109375 -119.5625 186.421875 -116.8125 183.3125 -103.375 C 178.84375 -85.109375 168.15625 -23.09375 168.15625 -16.546875 C 168.15625 -11.375 170.90625 -7.921875 176.765625 -5.515625 C 184 -2.75 193.65625 -1.03125 202.953125 -1.03125 C 212.265625 -1.03125 217.078125 -2.75 220.875 -7.578125 C 224.3125 -11.71875 224.3125 -12.0625 227.421875 -39.28125 L 243.609375 -186.765625 C 245 -197.78125 245.34375 -202.953125 245.34375 -206.0625 C 245.34375 -212.265625 243.265625 -215.359375 237.0625 -219.15625 C 229.484375 -223.28125 213.640625 -227.421875 203.640625 -227.421875 C 193.65625 -227.421875 190.546875 -223.96875 175.734375 -199.171875 C 152.296875 -159.546875 143.34375 -142.65625 120.953125 -93.03125 C 123.703125 -109.921875 124.390625 -121.640625 124.390625 -141.28125 C 124.390625 -169.1875 123.359375 -198.484375 122.328125 -207.78125 C 121.640625 -215.015625 118.875 -218.8125 113.359375 -221.21875 C 103.71875 -225.359375 87.171875 -228.796875 77.53125 -228.796875 C 67.1875 -228.796875 63.75 -227.078125 59.953125 -219.84375 C 52.71875 -206.75 39.28125 -167.46875 15.5 -91.65625 C 4.140625 -55.125 -3.453125 -25.84375 -3.453125 -18.265625 C -3.453125 -14.46875 -1.375 -11.71875 3.09375 -9.296875 C 10.6875 -5.515625 23.78125 -2.40625 32.390625 -2.40625 C 41.6875 -2.40625 45.828125 -7.234375 49.625 -21.703125 C 49.96875 -23.78125 51 -27.5625 52.03125 -31.703125 L 78.90625 -127.84375 C 78.5625 -119.21875 78.5625 -119.21875 76.15625 -79.9375 C 75.46875 -68.921875 74.765625 -44.453125 74.765625 -31.359375 C 74.765625 -16.546875 75.125 -14.125 78.21875 -11.375 C 84.078125 -6.203125 97.515625 -2.0625 107.859375 -2.0625 C 116.125 -2.0625 120.953125 -3.796875 125.078125 -8.265625 C 127.84375 -11.375 127.84375 -11.375 139.90625 -34.453125 Z M 187.796875 -124.734375 "/></g></g></g><g fill="#ffffff" fill-opacity="1"><g transform="translate(279.781218, 464.398345)"><g><path d="M 67.875 -229.484375 C 62.03125 -229.484375 58.921875 -228.796875 56.171875 -226.734375 C 52.71875 -224.3125 52.71875 -224.3125 39.96875 -184.34375 C 21.359375 -126.453125 -3.453125 -34.796875 -3.453125 -23.09375 C -3.453125 -17.921875 -0.6875 -13.78125 5.515625 -10.34375 C 12.40625 -6.546875 27.5625 -2.75 37.21875 -2.75 C 48.9375 -2.75 53.75 -4.828125 56.171875 -10.34375 C 58.234375 -15.84375 59.609375 -21.015625 73.734375 -78.21875 C 78.21875 -97.171875 100.96875 -179.53125 104.0625 -188.140625 C 108.890625 -203.640625 110.265625 -209.15625 110.265625 -211.921875 C 110.265625 -216.046875 107.859375 -220.1875 104.0625 -222.25 C 97.171875 -226.390625 81.328125 -229.484375 67.875 -229.484375 Z M 67.875 -229.484375 "/></g></g></g><g fill="#ffffff" fill-opacity="1"><g transform="translate(384.18929, 464.398345)"><g><path d="M 78.90625 -134.046875 C 86.140625 -80.28125 86.140625 -80.28125 92.34375 -46.171875 C 97.515625 -16.546875 98.203125 -14.8125 104.75 -11.03125 C 113.359375 -6.203125 128.1875 -2.40625 139.546875 -2.40625 C 153 -2.40625 158.5 -5.171875 158.5 -12.0625 C 158.5 -13.09375 158.5 -14.46875 158.15625 -15.15625 C 156.78125 -20.671875 156.78125 -20.671875 156.78125 -22.046875 C 156.78125 -23.4375 157.46875 -26.1875 158.15625 -28.9375 C 174.703125 -79.9375 204.328125 -195.375 204.328125 -209.5 C 204.328125 -215.015625 201.921875 -218.125 193.3125 -221.90625 C 182.625 -226.390625 173.671875 -228.796875 164.703125 -228.796875 C 154.71875 -228.796875 154.03125 -228.109375 147.140625 -201.234375 C 138.515625 -167.8125 133.359375 -141.96875 130.25 -116.125 C 127.84375 -146.09375 125.421875 -161.265625 120.25 -181.59375 C 113.703125 -206.0625 109.234375 -213.640625 98.546875 -219.5 C 87.875 -225.015625 72.015625 -229.484375 62.375 -229.484375 C 54.78125 -229.484375 50.65625 -225.015625 47.203125 -212.953125 C 28.9375 -151.953125 22.390625 -126.8125 4.484375 -55.828125 C 1.71875 -45.484375 -1.375 -33.421875 -3.09375 -25.84375 C -4.140625 -23.09375 -4.484375 -20.328125 -4.484375 -18.265625 C -4.484375 -13.4375 -1.375 -10 5.859375 -6.890625 C 13.4375 -3.796875 24.46875 -1.375 33.078125 -1.375 C 46.515625 -1.375 49.625 -4.828125 54.09375 -24.46875 C 55.484375 -32.046875 58.234375 -43.078125 61.671875 -56.171875 C 74.765625 -106.46875 75.46875 -111.296875 77.875 -140.59375 Z M 78.90625 -134.046875 "/></g></g></g><g fill="#ffffff" fill-opacity="1"><g transform="translate(586.113752, 464.398345)"><g><path d="M 153 -169.53125 C 160.234375 -169.53125 163.671875 -171.59375 166.78125 -178.140625 C 171.25 -187.796875 176.765625 -208.46875 176.765625 -216.734375 C 176.765625 -223.96875 173.328125 -226.046875 158.15625 -226.390625 C 156.78125 -226.390625 149.203125 -226.734375 140.9375 -227.421875 C 115.4375 -228.796875 100.96875 -229.140625 85.109375 -229.140625 C 48.9375 -229.140625 43.421875 -228.453125 39.96875 -224.671875 C 36.1875 -220.53125 26.1875 -187.796875 26.1875 -179.875 C 26.1875 -174.359375 30.671875 -172.28125 43.421875 -172.28125 L 33.765625 -137.484375 C 21.703125 -137.484375 20.328125 -137.140625 17.234375 -132.3125 C 12.40625 -124.734375 6.890625 -102.34375 6.890625 -91.65625 C 6.890625 -85.796875 9.296875 -83.734375 17.234375 -82.703125 L 8.953125 -46.859375 C 7.234375 -39.28125 7.234375 -39.28125 7.234375 -36.53125 C 7.234375 -29.640625 12.0625 -20.671875 20.328125 -10.6875 C 27.5625 -2.0625 32.046875 -1.03125 54.78125 -1.03125 L 73.734375 -1.03125 L 106.125 -0.34375 C 113.359375 -0.34375 117.15625 -1.71875 120.25 -4.828125 C 125.765625 -10.6875 131.96875 -31.015625 131.96875 -42.390625 C 131.96875 -47.203125 129.90625 -50.65625 126.453125 -51.34375 C 122.671875 -52.375 114.75 -52.71875 91.65625 -53.0625 C 77.875 -53.0625 74.078125 -53.0625 67.53125 -53.40625 L 74.421875 -82.703125 C 82.359375 -82.703125 106.125 -82.015625 120.609375 -80.96875 L 129.21875 -80.625 C 136.453125 -80.625 139.203125 -83.390625 143.6875 -94.0625 C 148.515625 -105.4375 152.640625 -120.953125 152.640625 -128.1875 C 152.640625 -135.421875 150.234375 -136.109375 107.515625 -137.140625 L 94.765625 -137.484375 L 91.65625 -137.484375 C 94.0625 -144.375 96.484375 -155.0625 96.484375 -157.46875 C 96.484375 -160.921875 94.765625 -162.296875 81.671875 -168.84375 C 80.625 -169.1875 77.53125 -170.5625 74.421875 -172.28125 C 100.609375 -171.59375 122.328125 -170.90625 139.90625 -169.875 Z M 153 -169.53125 "/></g></g></g><g fill="#fec538" fill-opacity="1"><g transform="translate(751.527535, 464.398345)"><g><path d="M 126.453125 -139.203125 L 88.90625 -140.25 L 90.625 -145.40625 L 98.203125 -170.5625 L 103.71875 -188.828125 C 109.234375 -205.71875 109.234375 -205.71875 109.234375 -209.5 C 109.234375 -215.359375 106.125 -219.84375 99.921875 -222.59375 C 92.6875 -226.046875 79.25 -229.140625 72.703125 -229.140625 C 65.125 -229.140625 59.609375 -225.703125 56.515625 -218.8125 C 54.09375 -212.609375 42.390625 -176.078125 36.1875 -153.34375 L 33.078125 -143 L 32.390625 -140.25 L 29.640625 -140.25 C 22.734375 -140.25 18.609375 -138.515625 15.84375 -134.390625 C 11.375 -127.5 4.140625 -102.6875 4.140625 -93.71875 C 4.140625 -86.484375 7.234375 -83.046875 16.546875 -81.328125 L 15.15625 -77.1875 C 13.4375 -69.953125 11.71875 -62.71875 9.640625 -55.828125 C 2.40625 -26.875 1.03125 -21.359375 1.03125 -17.234375 C 1.03125 -13.09375 3.453125 -10.6875 11.03125 -7.578125 C 18.609375 -4.484375 30.328125 -2.0625 39.28125 -2.0625 C 45.140625 -2.0625 49.625 -3.796875 52.375 -7.578125 C 55.125 -11.03125 56.515625 -14.46875 60.296875 -31.015625 C 61.328125 -36.1875 63.0625 -43.421875 65.46875 -52.03125 C 69.953125 -69.953125 70.640625 -73.390625 72.359375 -81.328125 L 88.90625 -81.328125 C 100.609375 -80.96875 102.6875 -82.359375 113.015625 -99.234375 C 114.40625 -101.65625 115.78125 -104.40625 117.15625 -107.15625 C 117.5 -107.515625 118.53125 -109.234375 119.5625 -111.296875 C 118.875 -108.546875 117.84375 -104.75 116.8125 -100.96875 C 113.015625 -88.5625 109.578125 -77.1875 106.125 -64.4375 C 94.0625 -19.984375 94.0625 -19.984375 94.0625 -16.890625 C 94.0625 -7.234375 106.46875 -2.40625 129.90625 -2.40625 C 144.375 -2.40625 146.453125 -3.796875 151.265625 -19.984375 C 166.78125 -72.015625 200.546875 -201.921875 200.546875 -209.84375 C 200.546875 -214.671875 197.4375 -218.8125 191.9375 -221.5625 C 185.390625 -224.671875 166.09375 -229.140625 158.15625 -229.140625 C 151.609375 -229.140625 150.234375 -227.078125 145.75 -212.265625 L 140.59375 -193.3125 L 133.359375 -165.390625 L 127.84375 -144.03125 Z M 126.453125 -139.203125 "/></g></g></g><g fill="#fec538" fill-opacity="1"><g transform="translate(948.972454, 464.398345)"><g><path d="M 119.90625 -203.296875 C 122.328125 -214.328125 123.015625 -218.8125 123.015625 -223.96875 C 123.015625 -230.171875 119.90625 -232.59375 112.328125 -232.59375 C 98.203125 -232.59375 79.59375 -224.671875 63.40625 -212.265625 C 28.9375 -185.03125 5.859375 -132.65625 5.859375 -81.671875 C 5.859375 -54.09375 13.78125 -32.046875 29.640625 -16.1875 C 41.6875 -4.140625 57.546875 2.75 73.046875 2.75 C 97.859375 2.75 123.015625 -11.71875 143.34375 -37.5625 C 164.703125 -65.125 180.90625 -117.84375 180.90625 -161.265625 C 180.90625 -199.171875 169.875 -230.171875 156.09375 -230.171875 C 150.921875 -230.171875 148.171875 -228.109375 124.734375 -207.4375 Z M 116.8125 -188.828125 C 119.5625 -178.484375 120.609375 -171.25 120.609375 -158.5 C 120.609375 -109.578125 99.921875 -58.578125 79.9375 -58.578125 C 71.328125 -58.578125 64.4375 -69.953125 64.4375 -84.421875 C 64.4375 -98.890625 68.921875 -117.5 76.15625 -134.390625 C 83.734375 -151.609375 92.6875 -162.640625 105.09375 -170.5625 C 110.609375 -174.015625 110.609375 -174.359375 111.984375 -175.734375 C 113.359375 -177.453125 113.703125 -178.140625 115.4375 -184 C 115.4375 -185.03125 116.125 -186.765625 116.8125 -188.828125 Z M 116.8125 -188.828125 "/></g></g></g><g fill="#fec538" fill-opacity="1"><g transform="translate(1135.390833, 464.398345)"><g><path d="M 101.65625 -169.875 C 101.65625 -162.984375 103.375 -162.296875 121.296875 -162.296875 C 140.25 -162.296875 147.140625 -165.046875 150.578125 -174.015625 C 154.375 -183.65625 157.8125 -202.265625 157.8125 -212.265625 C 157.8125 -217.421875 156.4375 -220.875 153.34375 -223.28125 C 148.171875 -227.421875 133.703125 -230.515625 119.21875 -230.515625 C 66.15625 -230.515625 22.734375 -198.484375 22.734375 -159.1875 C 22.734375 -146.09375 26.53125 -137.140625 41.6875 -112.671875 C 55.125 -91.3125 60.640625 -78.5625 60.640625 -69.609375 C 60.640625 -61.671875 54.4375 -56.859375 44.796875 -56.859375 C 43.078125 -56.859375 42.03125 -56.859375 39.625 -57.203125 C 40.65625 -64.4375 41 -67.875 41 -70.640625 C 41 -74.421875 40.3125 -76.15625 38.9375 -77.1875 C 36.1875 -78.5625 24.46875 -79.9375 14.46875 -79.9375 C 4.484375 -79.9375 -1.03125 -77.53125 -3.796875 -72.015625 C -7.921875 -63.75 -14.8125 -32.046875 -14.8125 -20.671875 C -14.8125 -15.5 -13.09375 -11.03125 -9.296875 -7.578125 C -4.140625 -2.40625 11.71875 0.34375 34.109375 0.34375 C 56.515625 0.34375 74.765625 -4.140625 88.21875 -13.09375 C 106.46875 -25.15625 118.1875 -47.546875 118.1875 -71.328125 C 118.1875 -93.03125 111.296875 -111.984375 93.375 -139.546875 C 86.484375 -150.578125 83.734375 -156.78125 83.734375 -161.953125 C 83.734375 -169.53125 88.90625 -173.328125 102 -174.703125 Z M 101.65625 -169.875 "/></g></g></g><g fill="#fec538" fill-opacity="1"><g transform="translate(1277.013626, 464.398345)"><g><path d="M 85.109375 -226.390625 C 39.96875 -228.109375 39.96875 -228.109375 36.53125 -228.109375 C 27.21875 -228.109375 24.46875 -227.078125 22.046875 -223.625 C 17.234375 -216.734375 11.375 -195.71875 11.375 -186.078125 C 11.375 -176.078125 15.5 -174.015625 39.28125 -174.015625 L 57.890625 -174.015625 C 58.234375 -174.015625 60.296875 -174.015625 63.40625 -173.671875 L 62.03125 -169.53125 C 38.25 -92.34375 18.265625 -22.734375 18.265625 -16.546875 C 18.265625 -11.71875 21.703125 -8.953125 31.015625 -5.859375 C 38.9375 -3.453125 49.625 -1.71875 58.234375 -1.71875 C 70.296875 -1.71875 73.046875 -4.484375 76.84375 -21.015625 C 79.25 -31.015625 85.796875 -55.484375 95.453125 -90.28125 C 112.671875 -152.640625 112.671875 -152.640625 112.671875 -155.75 C 112.671875 -160.921875 105.78125 -166.4375 94.421875 -170.21875 C 92.34375 -170.90625 90.28125 -171.59375 88.21875 -171.9375 C 87.875 -172.28125 85.796875 -172.984375 83.734375 -173.671875 C 88.21875 -174.015625 90.625 -174.015625 93.03125 -174.015625 C 99.578125 -174.015625 99.578125 -174.015625 118.1875 -172.984375 C 139.546875 -171.59375 139.546875 -171.59375 141.28125 -171.59375 C 148.515625 -171.59375 151.953125 -174.359375 155.0625 -182.625 C 158.84375 -192.625 162.984375 -208.8125 162.984375 -213.984375 C 162.984375 -218.46875 161.609375 -221.21875 158.5 -222.25 C 156.4375 -223.28125 156.4375 -223.28125 129.21875 -224.671875 Z M 85.109375 -226.390625 "/></g></g></g></svg>